<svg width="168" height="31" viewBox="0 0 168 31" fill="none" xmlns="http://www.w3.org/2000/svg">
<path d="M23.2523 2.0749V8.25438H15.8052V30.0014H8.04124V8.25438H0.673401V2.0749H23.2523Z" fill="black"/>
<path d="M33.8887 11.7006C34.7602 10.433 35.8165 9.42954 37.0577 8.69011C38.2989 7.95069 39.6325 7.58097 41.0585 7.58097V15.8599H38.8799C37.1897 15.8599 35.9354 16.19 35.1167 16.8502C34.2981 17.5104 33.8887 18.6591 33.8887 20.2964V30.0014H26.1248V7.77903H33.8887V11.7006Z" fill="black"/>
<path d="M42.5743 18.8704C42.5743 16.5729 42.9836 14.5659 43.8023 12.8494C44.6473 11.1329 45.7829 9.81245 47.2089 8.88817C48.6614 7.96389 50.2722 7.50175 52.0416 7.50175C53.5732 7.50175 54.8937 7.80544 56.0028 8.41283C57.1119 9.02021 57.9702 9.83886 58.5776 10.8688V7.77903H66.3415V30.0014H58.5776V26.9117C57.9702 27.9416 57.0987 28.7602 55.9632 29.3676C54.854 29.975 53.5468 30.2787 52.0416 30.2787C50.2722 30.2787 48.6614 29.8165 47.2089 28.8923C45.7829 27.968 44.6473 26.6476 43.8023 24.9311C42.9836 23.1881 42.5743 21.1679 42.5743 18.8704ZM58.5776 18.8704C58.5776 17.4444 58.1815 16.322 57.3892 15.5034C56.6234 14.6847 55.6727 14.2754 54.5371 14.2754C53.3752 14.2754 52.4113 14.6847 51.6455 15.5034C50.8796 16.2956 50.4967 17.418 50.4967 18.8704C50.4967 20.2964 50.8796 21.432 51.6455 22.2771C52.4113 23.0957 53.3752 23.505 54.5371 23.505C55.6727 23.505 56.6234 23.0957 57.3892 22.2771C58.1815 21.4584 58.5776 20.3229 58.5776 18.8704Z" fill="black"/>
<path d="M81.4214 22.6732L85.5806 7.77903H93.8596L86.2144 30.0014H76.5491L68.9039 7.77903H77.1829L81.4214 22.6732Z" fill="black"/>
<path d="M117.722 18.6327C117.722 19.2401 117.683 19.8475 117.604 20.4549H102.908C102.987 21.6697 103.317 22.5807 103.898 23.1881C104.505 23.7691 105.271 24.0596 106.195 24.0596C107.489 24.0596 108.414 23.4786 108.968 22.3167H117.247C116.904 23.8483 116.23 25.2215 115.227 26.4363C114.25 27.6247 113.009 28.5622 111.503 29.2488C109.998 29.9354 108.334 30.2787 106.512 30.2787C104.32 30.2787 102.366 29.8165 100.65 28.8923C98.9595 27.968 97.6259 26.6476 96.6488 24.9311C95.6981 23.2145 95.2228 21.1943 95.2228 18.8704C95.2228 16.5465 95.6981 14.5395 96.6488 12.8494C97.5995 11.1329 98.9199 9.81245 100.61 8.88817C102.327 7.96389 104.294 7.50175 106.512 7.50175C108.704 7.50175 110.645 7.95069 112.335 8.84856C114.025 9.74644 115.346 11.0404 116.296 12.7305C117.247 14.3943 117.722 16.3616 117.722 18.6327ZM109.8 16.6917C109.8 15.7411 109.483 15.0016 108.849 14.4735C108.216 13.9189 107.423 13.6416 106.473 13.6416C105.522 13.6416 104.743 13.9057 104.135 14.4339C103.528 14.9356 103.132 15.6882 102.947 16.6917H109.8Z" fill="black"/>
<path d="M128.664 0.688477V30.0014H120.9V0.688477H128.664Z" fill="black"/>
<path d="M140.849 0.688477V30.0014H133.085V0.688477H140.849Z" fill="black"/>
<path d="M155.609 30.2787C153.391 30.2787 151.397 29.8165 149.628 28.8923C147.885 27.968 146.512 26.6476 145.508 24.9311C144.505 23.2145 144.003 21.1943 144.003 18.8704C144.003 16.5729 144.505 14.5659 145.508 12.8494C146.538 11.1329 147.924 9.81245 149.667 8.88817C151.437 7.96389 153.431 7.50175 155.649 7.50175C157.867 7.50175 159.848 7.96389 161.591 8.88817C163.36 9.81245 164.746 11.1329 165.75 12.8494C166.78 14.5659 167.295 16.5729 167.295 18.8704C167.295 21.1679 166.78 23.1881 165.75 24.9311C164.746 26.6476 163.36 27.968 161.591 28.8923C159.821 29.8165 157.827 30.2787 155.609 30.2787ZM155.609 23.5446C156.692 23.5446 157.59 23.1485 158.303 22.3563C159.042 21.5376 159.412 20.3757 159.412 18.8704C159.412 17.3652 159.042 16.2164 158.303 15.4242C157.59 14.6319 156.705 14.2358 155.649 14.2358C154.592 14.2358 153.708 14.6319 152.995 15.4242C152.282 16.2164 151.925 17.3652 151.925 18.8704C151.925 20.4021 152.269 21.564 152.955 22.3563C153.642 23.1485 154.526 23.5446 155.609 23.5446Z" fill="black"/>
</svg>
